<svg width="253" height="41" viewBox="0 0 253 41" fill="none" xmlns="http://www.w3.org/2000/svg">
<path d="M51.2723 8.15189V32.4921H56.5849V22.4678H66.8979V32.4921H72.2105V8.15189H66.8979V18.3627H56.5849V8.15189H51.2723Z" fill="#174A43"/>
<path fill-rule="evenodd" clip-rule="evenodd" d="M85.7524 21.4757L80.4401 22.1941C76.7284 22.6959 74.8186 24.4728 74.8186 27.2096C74.8186 29.8098 76.6913 32.5093 81.4486 32.5093C82.2262 32.5093 83.0071 32.5121 83.8 32.5149C85.9812 32.5227 88.2521 32.5309 90.7872 32.482V20.8598C90.7872 17.0277 87.8358 15.1808 83.5995 15.1808C81.6205 15.1808 79.1898 15.4545 76.4812 16.0359V19.6282C78.9813 19.0126 80.7523 18.773 82.5927 18.773C84.7109 18.773 85.7524 19.4914 85.7524 20.9625V21.4757ZM82.3844 24.897L85.7526 24.4701V29.2972C84.5469 29.3108 84.0177 29.3107 83.2333 29.3104L82.8704 29.3103C80.8218 29.3103 79.919 28.2499 79.919 27.155C79.919 25.9919 80.5721 25.1269 82.3844 24.897Z" fill="#174A43"/>
<path d="M115.441 21.989C115.441 19.7994 114.573 18.773 112.767 18.773C111.726 18.773 110.649 19.081 109.538 19.4231C109.642 19.9706 109.712 20.6206 109.712 21.3047V32.4921H104.677V21.818C104.677 19.7651 103.843 18.773 102.142 18.773C101.422 18.773 100.702 18.8547 99.9594 18.939C99.6274 18.9768 99.2905 19.015 98.9473 19.0467V32.4919H93.9126V16.0359C97.0028 15.5912 99.9542 15.1808 103.149 15.1808C105.267 15.1808 106.864 15.6255 107.941 16.5492C110.302 15.7965 112.42 15.1808 114.746 15.1808C118.636 15.1808 120.476 17.1649 120.476 21.3045V32.4919H115.441V21.989Z" fill="#174A43"/>
<path d="M123.601 8.15189V32.4919H128.636V24.1786L134.4 32.4919H140.164L133.393 23.2549L140.164 15.3859H134.4L128.636 22.4678V8.15189H123.601Z" fill="#174A43"/>
<path fill-rule="evenodd" clip-rule="evenodd" d="M147.942 32.6973C142.803 32.6973 139.331 30.1656 139.331 24.8627V23.0153C139.331 17.7126 142.803 15.181 147.942 15.181C153.081 15.181 156.553 17.61 156.553 23.0153V24.8627C156.553 30.1656 153.081 32.6973 147.942 32.6973ZM151.519 22.7757C151.519 20.0731 150.338 18.773 147.942 18.773C145.511 18.773 144.365 20.073 144.365 22.7757V25.068C144.365 27.805 145.511 29.1049 147.942 29.1049C150.338 29.1049 151.519 27.805 151.519 25.068V22.7757Z" fill="#174A43"/>
<path d="M169.852 19.6284V15.8649C168.984 15.3859 167.804 15.2149 166.38 15.2149C164.262 15.2149 161.692 15.5912 159.123 16.0359V32.4919H164.157V19.3547C165.13 19.1494 165.998 19.0467 166.831 19.0467C167.977 19.0467 168.984 19.252 169.852 19.6284Z" fill="#174A43"/>
<path d="M236.567 8.49028V32.6972H241.562V24.4292L247.281 32.6972H253L246.282 23.5107L253 15.6848H247.281L241.562 22.7278V8.49028H236.567Z" fill="#174A43"/>
<path fill-rule="evenodd" clip-rule="evenodd" d="M186.512 32.6973H175.789V8.70674H185.922C191.127 8.70674 194.147 10.6946 194.147 14.9442C194.147 17.4119 192.793 19.0913 190.988 20.0853C193.869 20.9763 195.535 22.9641 195.535 26.1515C195.535 30.5724 192.203 32.6973 186.512 32.6973ZM181.098 21.9016V28.7219H186.235C188.768 28.7219 190.225 27.5565 190.225 25.2943C190.225 23.0324 188.802 21.9016 186.269 21.9016H181.098ZM181.098 12.6482V18.4404H185.506C187.622 18.4404 188.837 17.5148 188.837 15.5612C188.837 13.6077 187.692 12.6482 185.506 12.6482H181.098Z" fill="#174A43"/>
<path fill-rule="evenodd" clip-rule="evenodd" d="M203.713 22.427L208.984 21.7125L208.984 21.2026C208.984 19.7394 207.951 19.025 205.849 19.025C204.023 19.025 202.266 19.2632 199.786 19.8756V16.3028C202.473 15.7246 204.885 15.4523 206.848 15.4523C211.051 15.4523 213.979 17.2892 213.979 21.1002V32.6587C211.464 32.7073 209.211 32.6992 207.048 32.6914H207.046L207.043 32.6914H207.041L207.038 32.6914H207.037C206.254 32.6886 205.482 32.6858 204.714 32.6858C199.994 32.6858 198.136 30.0012 198.136 27.4151C198.136 24.6932 200.031 22.9261 203.713 22.427ZM208.984 24.6903L205.642 25.1151C203.844 25.3434 203.196 26.2038 203.196 27.3606C203.196 28.4493 204.092 29.504 206.125 29.504C206.253 29.504 206.373 29.5041 206.487 29.5041C207.264 29.5044 207.789 29.5046 208.984 29.4911V24.6903Z" fill="#174A43"/>
<path d="M225.274 18.9541C227.148 18.9541 228.085 19.8794 228.085 21.8332V32.6973H233.117V21.4903C233.117 17.3434 230.896 15.3555 226.315 15.3555C222.984 15.3555 219.895 15.7667 216.807 16.2122V32.6972H221.839V19.2625C222.04 19.2383 222.241 19.2131 222.441 19.1879L222.443 19.1877C223.379 19.0701 224.303 18.9541 225.274 18.9541Z" fill="#174A43"/>
<path d="M13.7891 39.1221C24.6607 42.8989 36.6816 37.5486 40.6385 27.1719C43.1464 20.5951 41.8131 13.5778 37.7325 8.35858L35.9997 12.9026C38.0982 16.776 38.5585 21.4429 36.8727 25.8636C33.6728 34.2552 23.9515 38.582 15.1597 35.5277C14.64 35.3471 14.1352 35.1448 13.646 34.9223L18.4733 22.2631H21.9625L18.9431 30.1812L25.9152 30.198L35.2519 5.71345C33.2525 3.93042 30.8519 2.4942 28.1184 1.54457C17.2469 -2.23225 5.22596 3.11804 1.26902 13.4948C-1.23886 20.0715 0.0944228 27.0889 4.17508 32.308L5.90784 27.764C3.80939 23.8906 3.34907 19.2237 5.03481 14.803C8.23476 6.4114 17.956 2.08464 26.7478 5.13894C27.2675 5.31949 27.7723 5.52179 28.2616 5.74437L23.4211 18.438H19.9319L22.9644 10.4854L15.9923 10.4686L6.65568 34.9532C8.65503 36.7362 11.0556 38.1724 13.7891 39.1221Z" fill="#17A755"/>
</svg>
